<svg version="1.1" id="Layer_1" xmlns="http://www.w3.org/2000/svg" xmlns:xlink="http://www.w3.org/1999/xlink" x="0px" y="0px"
	 width="100%" viewBox="0 0 1210 646" enable-background="new 0 0 1210 646" xml:space="preserve">
<path fill="#FFFFFE" opacity="1.000000" stroke="none" 
	d="
M710.000000,647.000000 
	C473.333344,647.000000 237.166702,647.000000 1.000032,647.000000 
	C1.000021,431.666687 1.000021,216.333389 1.000011,1.000061 
	C404.333282,1.000040 807.666565,1.000040 1211.000000,1.000020 
	C1211.000000,216.333267 1211.000000,431.666534 1211.000000,646.999878 
	C1044.166626,647.000000 877.333313,647.000000 710.000000,647.000000 
M35.329979,148.889374 
	C34.948189,148.534485 34.566399,148.179596 33.918339,147.215729 
	C31.747366,145.009918 29.576395,142.804108 27.022858,140.176056 
	C26.755461,140.210800 26.488064,140.245560 26.220661,140.280304 
	C26.438293,140.560318 26.655926,140.840317 27.052250,141.771362 
	C29.172625,144.134811 31.293001,146.498276 33.704945,149.257263 
	C34.074677,149.563446 34.444408,149.869644 34.993320,150.741241 
	C35.908031,151.590530 36.822742,152.439835 37.737453,153.289124 
	C37.950661,153.040314 38.163864,152.791489 38.377071,152.542679 
	C37.458900,151.475006 36.540726,150.407318 35.329979,148.889374 
M46.913967,162.279144 
	C46.546310,162.313599 46.178658,162.348053 45.811001,162.382507 
	C45.993130,162.753235 46.175255,163.123962 46.729820,164.072739 
	C47.778305,165.571960 48.837166,167.064041 49.873749,168.571442 
	C70.065651,197.934601 83.553902,229.925995 87.243141,265.598114 
	C90.251350,294.685303 89.843231,323.787415 85.695557,352.743988 
	C83.070145,371.072998 78.788719,389.024139 70.989532,406.021149 
	C109.832253,348.625916 138.686646,286.449463 158.918243,220.221848 
	C179.287689,153.543060 189.388489,85.423508 186.501938,15.589905 
	C186.027664,16.824263 185.869949,18.099380 185.801071,19.379282 
	C184.038681,52.128880 180.732056,84.686859 172.937012,116.623611 
	C168.041901,136.679169 161.829361,156.278473 150.117355,173.623199 
	C141.947311,185.722488 131.776367,195.202927 116.670464,197.518555 
	C103.497154,199.537933 91.332352,195.591660 80.686058,188.561905 
	C68.956932,180.817154 58.261135,171.507462 46.913967,162.279144 
M629.633179,312.052094 
	C627.224792,324.980133 624.816406,337.908203 622.408081,350.836243 
	C621.827637,350.761597 621.247192,350.686981 620.666748,350.612335 
	C620.381714,349.535248 620.038818,348.469788 619.820129,347.379395 
	C612.914551,312.956451 605.933655,278.548065 599.249390,244.082123 
	C598.512573,240.282974 596.924622,239.640182 593.645935,239.708313 
	C585.818298,239.870956 577.985229,239.770065 570.154358,239.774353 
	C566.938110,239.776108 563.721863,239.774628 560.312195,239.774628 
	C560.689697,242.170273 560.821594,243.670807 561.169556,245.119461 
	C574.064087,298.808533 587.000244,352.487732 599.827637,406.192841 
	C600.477295,408.912994 601.383240,410.117828 604.373840,410.072815 
	C615.201294,409.909729 626.033752,409.927704 636.861938,410.063721 
	C639.624268,410.098450 640.530396,409.075256 641.014832,406.447083 
	C647.016357,373.883514 653.126892,341.340027 659.243958,308.797852 
	C660.192627,303.751099 661.314270,298.736816 662.355957,293.707520 
	C663.976624,295.652527 664.523804,297.511719 664.881104,299.406738 
	C671.601562,335.050537 678.339294,370.691223 684.929382,406.359192 
	C685.478333,409.330017 686.673096,410.122742 689.514465,410.079346 
	C699.175842,409.931763 708.866150,409.602203 718.494812,410.182373 
	C724.065918,410.518097 725.769470,408.458191 726.953064,403.404022 
	C736.395020,363.082001 746.136475,322.830139 755.764587,282.551636 
	C759.118530,268.520447 762.412170,254.474854 765.888733,239.779037 
	C757.339111,239.779037 749.374207,239.739990 741.409851,239.788864 
	C731.299316,239.850906 725.200317,244.744980 723.172302,254.736938 
	C717.679443,281.799255 712.340454,308.892822 706.853577,335.956360 
	C705.836426,340.973358 704.413635,345.908112 703.178040,350.880798 
	C702.673706,350.816345 702.169373,350.751892 701.665039,350.687408 
	C695.372253,313.902252 689.079468,277.117096 682.699524,239.822281 
	C669.968079,239.822281 657.514893,239.749939 645.066406,239.956635 
	C644.046387,239.973572 642.374268,241.764496 642.155823,242.944214 
	C637.945801,265.681549 633.907959,288.450806 629.633179,312.052094 
M1061.996460,372.486908 
	C1067.038696,384.555267 1074.387817,394.848969 1085.030518,402.654755 
	C1106.695068,418.544617 1151.954712,419.089600 1174.762329,389.028656 
	C1181.889038,379.635406 1186.294800,369.115204 1188.907959,357.095001 
	C1180.257690,357.095001 1172.285156,357.075531 1164.312744,357.108704 
	C1162.317871,357.116974 1160.319336,357.241608 1158.330078,357.404938 
	C1153.339478,357.814697 1149.703247,360.408508 1146.745605,364.344788 
	C1144.970215,366.707489 1143.105591,369.231506 1140.721680,370.868439 
	C1130.915649,377.601898 1116.570679,377.592438 1107.754517,371.194794 
	C1098.743896,364.656067 1092.113159,347.156860 1094.945557,336.484863 
	C1126.704834,336.484863 1158.609131,336.484863 1190.418091,336.484863 
	C1192.277222,325.179260 1190.515991,302.219330 1186.786743,287.468964 
	C1179.296265,257.842926 1160.824707,240.753235 1131.666016,236.472198 
	C1099.639404,231.770081 1072.969360,246.531036 1061.790771,276.856934 
	C1050.221924,308.241333 1051.066895,340.123627 1061.996460,372.486908 
M801.166138,281.974640 
	C804.200684,275.582428 809.772278,272.347412 816.329163,272.164429 
	C823.516541,271.963837 830.804749,272.894409 837.937988,274.029846 
	C843.595337,274.930420 846.920044,278.869507 847.556885,284.687500 
	C848.192627,290.496094 845.657227,295.073120 840.563538,297.321228 
	C835.006348,299.773926 829.051208,301.484650 823.121521,302.897522 
	C813.434753,305.205566 803.351685,306.158203 793.932434,309.213715 
	C776.962219,314.718719 762.935913,324.409760 760.495422,343.703308 
	C759.136658,354.445282 758.933716,365.766846 760.762878,376.387482 
	C764.442505,397.751923 782.178711,412.307159 803.974365,412.878265 
	C814.564880,413.155762 825.313416,412.557404 835.787537,410.995300 
	C854.562622,408.195160 868.655151,398.137604 877.431580,381.027893 
	C882.806213,370.549896 884.656494,359.229828 884.803406,347.694427 
	C885.083374,325.710602 884.976746,303.720032 884.848694,281.733337 
	C884.741882,263.400330 874.727722,248.395584 857.650330,241.824188 
	C838.784912,234.564728 819.320679,233.941330 799.760620,238.700180 
	C786.069336,242.031189 776.071472,250.516449 769.155212,262.590881 
	C765.535339,268.910400 763.305725,275.758118 763.001221,283.589539 
	C774.453918,283.589539 785.261047,283.626709 796.067383,283.548706 
	C797.650391,283.537292 799.229492,282.977783 801.166138,281.974640 
M512.803711,237.680450 
	C509.558655,236.994690 506.343475,236.069946 503.063934,235.659973 
	C468.878265,231.386551 441.603210,244.622696 430.049835,279.779968 
	C420.355011,309.281586 421.359314,339.148163 430.271332,368.646667 
	C435.929596,387.375488 448.170349,400.669464 466.728241,407.583099 
	C497.426300,419.019379 536.399414,410.692719 551.271118,373.802094 
	C564.031677,342.148346 564.195496,309.940369 552.939575,277.863068 
	C546.174072,258.582458 533.911926,244.120102 512.803711,237.680450 
M179.961716,293.915497 
	C181.913818,280.374084 191.125183,271.570526 204.115479,271.089478 
	C214.095062,270.719910 228.154236,277.088684 230.303665,292.304901 
	C230.836517,296.076965 231.068161,299.921143 231.076782,303.733002 
	C231.140503,331.899323 231.085175,360.065918 231.127701,388.232330 
	C231.144043,399.065277 237.790955,408.164398 246.862259,408.868408 
	C254.418793,409.454803 262.057007,408.988556 270.014832,408.988556 
	C270.014832,407.401520 270.014801,406.101501 270.014801,404.801483 
	C270.014679,372.468323 270.147095,340.134216 269.920044,307.802643 
	C269.864197,299.846802 269.161987,291.809998 267.830719,283.967682 
	C265.560913,270.596802 260.988678,258.081085 249.316833,249.819519 
	C231.211624,237.004272 211.241577,231.485764 189.344421,237.138489 
	C167.343536,242.818008 149.084793,253.442261 143.628006,277.784790 
	C141.818787,285.855591 140.345551,294.191071 140.249069,302.423492 
	C139.844864,336.917694 140.021332,371.418732 139.985229,405.917267 
	C139.984222,406.875153 139.985092,407.833069 139.985092,408.957275 
	C153.320435,408.957275 166.224808,408.957275 179.594742,408.957275 
	C179.594742,406.915680 179.594666,405.114716 179.594757,403.313751 
	C179.596268,374.813904 179.578354,346.313995 179.612228,317.814209 
	C179.621338,310.154327 179.787933,302.494629 179.961716,293.915497 
M404.757507,263.816833 
	C400.941711,259.257599 397.844116,253.716949 393.186279,250.308395 
	C372.591827,235.237564 349.875183,230.703629 325.344727,239.206421 
	C305.502472,246.084183 290.488342,258.000397 286.444122,279.910675 
	C284.851837,288.537201 283.635498,297.364349 283.545380,306.113495 
	C283.208984,338.767487 283.410339,371.426971 283.409943,404.084412 
	C283.409943,405.685883 283.409912,407.287354 283.409912,408.789917 
	C296.944000,408.789917 309.826019,408.789917 322.889832,408.789917 
	C322.889832,398.391632 322.879272,388.409302 322.891846,378.426941 
	C322.926056,351.268890 322.731384,324.107788 323.082916,296.953766 
	C323.384094,273.690460 347.012360,265.337372 362.599945,275.256348 
	C371.823578,281.125702 374.400726,289.979370 374.401001,300.138916 
	C374.401825,328.630676 374.387726,357.122437 374.435699,385.614105 
	C374.440155,388.262268 374.635132,390.947205 375.101929,393.550476 
	C376.451599,401.077179 382.322845,408.071136 389.145966,408.694885 
	C397.004730,409.413269 404.979584,408.861694 412.934570,408.861694 
	C413.045502,408.140106 413.182281,407.664948 413.182495,407.189728 
	C413.197571,372.366241 413.329315,337.542114 413.141785,302.719666 
	C413.070618,289.498657 411.015594,276.548065 404.757507,263.816833 
M1035.441162,260.963806 
	C1037.523438,254.089584 1039.605591,247.215347 1041.859131,239.775467 
	C1032.667358,239.775467 1024.520630,239.771606 1016.373962,239.776337 
	C1002.780884,239.784210 997.491455,243.747223 994.123718,257.028748 
	C986.316040,287.819672 978.654541,318.647705 970.908997,349.454468 
	C970.304504,351.858948 969.506592,354.214844 968.403748,357.919617 
	C964.352112,341.477112 960.672180,326.463837 956.950867,311.460785 
	C951.386475,289.027100 945.832336,266.590546 940.129150,244.192078 
	C939.719543,242.583389 938.157593,240.039536 937.084656,240.015488 
	C924.130188,239.724991 911.166870,239.827316 897.762329,239.827316 
	C898.185974,241.646439 898.407410,242.926010 898.782532,244.158783 
	C904.833740,264.043732 910.902405,283.923340 916.971375,303.802856 
	C927.362000,337.838196 937.784424,371.863922 948.096619,405.923004 
	C948.989197,408.871216 950.180237,410.194977 953.545288,410.117767 
	C964.369812,409.869415 975.204285,409.943512 986.032959,410.068634 
	C988.660400,410.099030 989.790588,409.183533 990.558472,406.679291 
	C1005.379211,358.344238 1020.289917,310.036804 1035.441162,260.963806 
M128.896301,144.355820 
	C142.670853,127.322784 142.353516,99.666321 131.793961,83.260315 
	C119.496063,64.153549 97.075890,63.887848 85.657410,83.442986 
	C74.730721,102.155884 74.665352,121.611893 85.835083,140.327652 
	C96.198936,157.693100 114.325058,159.360703 128.896301,144.355820 
M637.568420,458.383911 
	C637.859619,457.726532 638.150757,457.069122 638.583923,456.091125 
	C641.048035,466.677948 643.413269,476.839813 645.796387,487.078796 
	C648.271484,487.078796 650.395752,487.078796 652.895935,487.078796 
	C656.849976,472.579193 660.796631,458.106903 664.815186,443.370667 
	C662.264954,443.370667 660.329163,443.370667 658.221558,443.370667 
	C655.433838,453.928589 652.693359,464.307251 649.607361,475.994720 
	C647.259583,465.858521 645.231323,457.149994 643.227783,448.435730 
	C641.830078,442.356750 641.845215,442.353271 635.089417,443.832764 
	C632.637268,454.094421 630.166504,464.434052 627.695740,474.773651 
	C624.628601,465.970337 622.063110,457.220581 620.429382,448.300140 
	C619.452087,442.963867 616.967651,442.230286 612.592834,443.605225 
	C612.517700,443.953064 612.328674,444.295898 612.401001,444.569611 
	C615.626221,456.776733 618.882263,468.975647 622.116638,481.180328 
	C623.872437,487.805237 623.857849,487.809082 631.013000,486.695068 
	C633.092590,477.579651 635.196594,468.357056 637.568420,458.383911 
M290.936523,456.566010 
	C292.921661,456.976013 294.392944,457.366730 295.493530,454.558807 
	C297.632416,449.101929 303.037415,447.308777 308.713867,449.430481 
	C312.205841,450.735657 313.288818,453.501099 313.401947,456.906708 
	C313.530640,460.780060 310.170074,460.219635 308.076508,460.761688 
	C304.070465,461.798859 299.823212,461.951080 295.863922,463.111603 
	C289.356232,465.019135 286.120148,470.833893 287.032593,477.980316 
	C287.806702,484.043121 292.458099,488.513519 299.174927,488.013855 
	C304.183685,487.641266 309.059418,485.480682 314.122070,484.081085 
	C315.553986,487.558472 315.553986,487.558472 321.296417,486.875793 
	C320.930634,481.429230 320.435394,476.014130 320.239319,470.588257 
	C320.041199,465.104248 320.313080,459.601654 320.063965,454.121521 
	C319.749634,447.207764 316.655426,443.610504 309.856323,442.797760 
	C306.141357,442.353699 302.199829,442.518188 298.532928,443.260315 
	C292.981781,444.383820 289.675964,448.298096 288.522247,453.804138 
	C288.372894,454.516846 289.584320,455.514679 290.936523,456.566010 
M544.192688,475.253967 
	C544.132629,468.425598 544.364563,461.576263 543.877319,454.778534 
	C543.664917,451.815430 542.772644,448.156250 540.806946,446.207184 
	C535.502075,440.947113 528.612366,441.551117 522.019287,443.353760 
	C515.958374,445.010864 512.808105,449.393158 512.061401,455.862122 
	C513.181213,456.147491 514.109802,456.467377 515.064636,456.605652 
	C516.171814,456.765991 517.302124,456.766846 518.320312,456.830536 
	C521.286072,449.269043 526.329590,446.864471 532.836670,449.548096 
	C536.329285,450.988495 537.791138,453.877045 536.983154,457.115936 
	C536.603699,458.637024 534.004944,460.125000 532.137695,460.646912 
	C528.151672,461.761078 523.894226,461.910461 519.916077,463.044678 
	C513.175354,464.966370 509.827972,471.014587 510.989288,478.303009 
	C511.961975,484.407684 516.598145,488.601074 523.444519,488.010193 
	C528.337830,487.587860 533.081421,485.430695 537.922607,484.038757 
	C538.456299,488.827637 542.298767,487.224121 545.437073,486.831909 
	C544.998840,483.086365 544.595459,479.638245 544.192688,475.253967 
M781.807617,450.289154 
	C783.614502,448.112762 785.421387,445.936371 787.275452,443.703186 
	C781.324036,441.739166 777.846924,444.097168 774.771545,448.210358 
	C771.736755,452.269135 768.196899,455.950287 763.967834,460.853027 
	C763.967834,448.675964 763.967834,437.849701 763.967834,427.094849 
	C761.484802,427.094849 759.571350,427.094849 757.595093,427.094849 
	C757.595093,447.186829 757.595093,466.936371 757.595093,486.872925 
	C759.831482,486.872925 761.848389,486.872925 763.528076,486.872925 
	C765.778870,479.717957 760.436340,471.342957 768.635498,465.470642 
	C771.912842,471.288025 775.070923,476.909393 778.244385,482.522095 
	C781.342346,488.001404 782.398193,488.382507 788.926880,486.355835 
	C785.713501,480.888733 782.482788,475.467285 779.325012,470.003693 
	C773.336426,459.642426 773.353821,459.632355 781.807617,450.289154 
M389.345001,451.004272 
	C385.612762,458.545868 385.619110,466.491302 387.396881,474.404419 
	C389.387787,483.266022 395.939941,488.289551 404.518311,488.233368 
	C412.913971,488.178406 419.826202,482.907196 421.309113,474.091461 
	C422.256165,468.461212 422.286255,462.425598 421.365204,456.794525 
	C420.157410,449.410156 415.617737,444.107666 407.777496,442.670868 
	C400.135742,441.270477 394.061188,443.830444 389.345001,451.004272 
M229.742752,473.208466 
	C229.816040,468.393951 230.363968,463.529358 229.862793,458.775421 
	C228.850815,449.175995 221.730530,442.533203 212.855698,442.198792 
	C203.996201,441.864929 196.608688,448.069397 195.093750,457.782288 
	C194.413254,462.145325 194.347855,466.741486 194.872604,471.127869 
	C196.112427,481.491089 201.946716,487.485046 210.661285,488.145599 
	C220.070282,488.858795 226.398499,484.107269 229.742752,473.208466 
M708.788208,452.921478 
	C704.463318,444.860504 698.390930,441.316162 690.766174,442.402344 
	C682.593689,443.566559 677.046997,448.419525 675.726624,457.403778 
	C674.876343,463.188629 675.044250,469.413269 676.223755,475.138367 
	C677.998718,483.753693 684.815613,488.372894 693.291260,488.202087 
	C701.450317,488.037659 708.659180,482.723999 709.710815,474.285919 
	C710.551331,467.541626 709.336487,460.541260 708.788208,452.921478 
M108.894775,453.771576 
	C111.507584,449.971497 114.965050,447.980133 119.561646,449.567993 
	C124.165359,451.158356 124.732002,455.185791 124.747116,459.360352 
	C124.756165,461.857483 124.749222,464.354675 124.749245,466.851837 
	C124.749313,473.594788 124.749268,480.337738 124.749268,486.934509 
	C127.398308,486.934509 129.326706,486.934509 131.215363,486.934509 
	C131.215363,475.505707 131.709106,464.363037 131.048676,453.289246 
	C130.577225,445.384125 123.848450,440.861481 116.206810,442.519165 
	C112.975922,443.220001 110.010117,445.142822 106.943390,446.501556 
	C106.594261,441.698822 103.447441,442.960632 100.321823,443.644897 
	C100.321823,458.220428 100.321823,472.479919 100.321823,486.979248 
	C102.608360,486.979248 104.692909,486.979248 107.025917,486.979248 
	C107.025917,483.897095 106.900887,481.071686 107.049728,478.260803 
	C107.469849,470.326721 108.002373,462.398590 108.894775,453.771576 
M172.972733,480.360718 
	C172.972733,482.499084 172.972733,484.637421 172.972733,486.961334 
	C175.382355,486.961334 177.467072,486.961334 179.790375,486.961334 
	C179.790375,476.044983 180.154404,465.396240 179.675949,454.785461 
	C179.288651,446.195923 172.765167,440.908936 164.952515,442.451813 
	C161.541794,443.125366 158.392700,445.123627 155.078979,446.539917 
	C155.195312,441.398987 151.704849,443.207367 148.731110,443.463104 
	C148.731110,458.174866 148.731110,472.552704 148.731110,487.012512 
	C151.012878,487.012512 152.942047,487.012512 155.250656,487.012512 
	C155.250656,485.984131 155.235992,485.186249 155.252884,484.389069 
	C155.439621,475.578400 155.308304,466.744781 155.935349,457.965393 
	C156.351990,452.132111 160.941513,448.561157 165.953171,449.054688 
	C170.401215,449.492676 172.899628,452.922791 172.957291,458.919678 
	C173.022934,465.745728 172.972733,472.572906 172.972733,480.360718 
M436.978271,462.500458 
	C436.978271,470.613739 436.978271,478.726990 436.978271,486.913086 
	C439.490051,486.913086 441.563629,486.913086 443.871094,486.913086 
	C443.871094,479.269623 443.770233,471.950684 443.918457,464.636810 
	C443.981812,461.509155 444.158569,458.276337 445.008118,455.297852 
	C446.215637,451.064240 450.687622,448.423492 454.675446,449.115051 
	C459.158295,449.892426 461.085266,452.917664 461.279266,457.230408 
	C461.383881,459.556030 461.389008,461.887299 461.393005,464.216064 
	C461.406067,471.796448 461.397888,479.376831 461.397888,486.989136 
	C464.034241,486.989136 465.957733,486.989136 468.235443,486.989136 
	C468.235443,476.782928 468.266388,466.825378 468.223694,456.868134 
	C468.198730,451.047852 466.794647,445.812439 460.765289,443.418701 
	C454.572662,440.960144 449.030426,442.161652 444.423889,447.140137 
	C444.164062,447.420898 443.628876,447.446930 443.264496,447.576355 
	C443.030975,446.029572 442.820099,444.632812 442.630829,443.379211 
	C440.608398,443.379211 439.009338,443.379211 436.978271,443.379211 
	C436.978271,449.581970 436.978271,455.541351 436.978271,462.500458 
M270.230164,461.901886 
	C272.229065,455.837189 274.227966,449.772491 276.222168,443.722076 
	C271.047180,442.002777 268.689117,443.600464 267.638580,448.385406 
	C266.612366,453.059448 264.804810,457.562347 263.333984,462.138336 
	C261.866852,466.702759 260.392029,471.264679 258.603760,476.810120 
	C255.445068,466.608734 252.386978,457.657013 249.963898,448.536621 
	C248.650528,443.593140 246.188156,442.051575 241.081848,443.644745 
	C245.851593,458.071136 250.620331,472.494537 255.428665,487.037720 
	C257.615570,487.037720 259.585571,487.037720 261.893982,487.037720 
	C264.581909,478.987427 267.306213,470.828094 270.230164,461.901886 
M348.752441,449.258331 
	C354.183350,449.230560 351.282013,445.777527 351.576447,443.429108 
	C349.231934,443.167236 347.315582,442.953186 345.011932,442.695862 
	C345.011932,437.811920 345.011932,433.244720 345.011932,428.769989 
	C336.118195,430.388519 339.031006,437.555115 338.204285,442.794769 
	C336.587952,443.037903 335.336975,443.226074 333.941101,443.436066 
	C333.941101,445.306549 333.941101,446.935181 333.941101,448.796967 
	C335.294617,449.124451 336.672913,449.457916 338.397522,449.875153 
	C338.397522,459.123474 338.208801,468.255859 338.450165,477.376801 
	C338.695282,486.638672 343.352539,489.725983 352.550720,486.744049 
	C352.290497,484.774445 352.019928,482.726685 351.707550,480.362549 
	C346.232483,481.265045 345.021179,478.552338 345.180481,474.024506 
	C345.425903,467.049225 345.122711,460.054688 345.370178,453.079559 
	C345.416168,451.783936 346.961578,450.541534 348.752441,449.258331 
M572.336914,480.480865 
	C571.255859,479.031128 569.289307,477.611145 569.239380,476.126770 
	C568.944153,467.344147 569.093811,458.546570 569.093811,449.593658 
	C571.335693,449.360107 573.271484,449.158417 575.272095,448.949982 
	C575.272095,446.998199 575.272095,445.256165 575.272095,443.325073 
	C573.061462,443.167847 571.164978,443.032928 568.914917,442.872894 
	C568.914917,437.923950 568.914917,433.354828 568.914917,428.755768 
	C560.109863,430.485046 563.069031,437.634857 562.188843,442.786896 
	C560.567871,443.037476 559.316345,443.230927 557.929626,443.445282 
	C557.929626,445.329224 557.929626,446.961151 557.929626,448.804260 
	C559.303406,449.140350 560.682861,449.477844 562.359863,449.888123 
	C562.359863,459.174072 562.249451,468.316467 562.390930,477.454956 
	C562.532288,486.590973 567.535400,489.909546 576.550110,486.648834 
	C575.069763,484.736481 578.219482,480.696350 572.336914,480.480865 
M732.281616,461.282684 
	C734.047852,450.761108 735.102783,449.861145 745.373413,451.238403 
	C745.114868,448.579041 745.801453,445.186096 744.452759,443.854401 
	C741.229919,440.672150 737.742310,441.812042 731.912842,446.847717 
	C731.826050,441.743530 728.680298,443.039093 725.723572,443.497253 
	C725.723572,458.172821 725.723572,472.556824 725.723572,486.952881 
	C728.005676,486.952881 729.922607,486.952881 732.246399,486.952881 
	C732.246399,478.487854 732.246399,470.331573 732.281616,461.282684 
M76.733681,452.575470 
	C76.733681,464.012421 76.733681,475.449341 76.733681,486.899017 
	C79.256020,486.899017 81.310364,486.899017 83.241318,486.899017 
	C83.241318,472.152496 83.241318,457.775299 83.241318,443.392059 
	C80.920601,443.392059 79.000229,443.392059 76.734512,443.392059 
	C76.734512,446.318054 76.734512,448.961639 76.733681,452.575470 
M371.890900,465.499878 
	C371.890900,458.212372 371.890900,450.924866 371.890900,443.378418 
	C369.465668,443.378418 367.563751,443.378418 365.382935,443.378418 
	C365.382935,457.984131 365.382935,472.379486 365.382935,486.869202 
	C367.617218,486.869202 369.658447,486.869202 371.890839,486.869202 
	C371.890839,479.815826 371.890839,473.157776 371.890900,465.499878 
M77.365814,426.889374 
	C77.107147,429.696716 76.848473,432.504059 76.583435,435.380493 
	C79.302170,435.380493 81.210808,435.380493 83.324158,435.380493 
	C83.324158,432.413483 83.324158,429.740570 83.324158,426.732056 
	C81.361313,426.732056 79.741859,426.732056 77.365814,426.889374 
M365.099396,428.934906 
	C365.099396,431.020691 365.099396,433.106476 365.099396,435.377747 
	C367.614838,435.377747 369.512787,435.377747 371.585388,435.377747 
	C371.585388,432.405273 371.585388,429.725342 371.585388,426.046631 
	C369.066498,426.848175 367.097626,427.474701 365.099396,428.934906 
z"/>
<path fill="#ED5608" opacity="1.000000" stroke="none" 
	d="
M629.733887,311.632782 
	C633.907959,288.450806 637.945801,265.681549 642.155823,242.944214 
	C642.374268,241.764496 644.046387,239.973572 645.066406,239.956635 
	C657.514893,239.749939 669.968079,239.822281 682.699524,239.822281 
	C689.079468,277.117096 695.372253,313.902252 701.665039,350.687408 
	C702.169373,350.751892 702.673706,350.816345 703.178040,350.880798 
	C704.413635,345.908112 705.836426,340.973358 706.853577,335.956360 
	C712.340454,308.892822 717.679443,281.799255 723.172302,254.736938 
	C725.200317,244.744980 731.299316,239.850906 741.409851,239.788864 
	C749.374207,239.739990 757.339111,239.779037 765.888733,239.779037 
	C762.412170,254.474854 759.118530,268.520447 755.764587,282.551636 
	C746.136475,322.830139 736.395020,363.082001 726.953064,403.404022 
	C725.769470,408.458191 724.065918,410.518097 718.494812,410.182373 
	C708.866150,409.602203 699.175842,409.931763 689.514465,410.079346 
	C686.673096,410.122742 685.478333,409.330017 684.929382,406.359192 
	C678.339294,370.691223 671.601562,335.050537 664.881104,299.406738 
	C664.523804,297.511719 663.976624,295.652527 662.355957,293.707520 
	C661.314270,298.736816 660.192627,303.751099 659.243958,308.797852 
	C653.126892,341.340027 647.016357,373.883514 641.014832,406.447083 
	C640.530396,409.075256 639.624268,410.098450 636.861938,410.063721 
	C626.033752,409.927704 615.201294,409.909729 604.373840,410.072815 
	C601.383240,410.117828 600.477295,408.912994 599.827637,406.192841 
	C587.000244,352.487732 574.064087,298.808533 561.169556,245.119461 
	C560.821594,243.670807 560.689697,242.170273 560.312195,239.774628 
	C563.721863,239.774628 566.938110,239.776108 570.154358,239.774353 
	C577.985229,239.770065 585.818298,239.870956 593.645935,239.708313 
	C596.924622,239.640182 598.512573,240.282974 599.249390,244.082123 
	C605.933655,278.548065 612.914551,312.956451 619.820129,347.379395 
	C620.038818,348.469788 620.381714,349.535248 620.666748,350.612335 
	C621.247192,350.686981 621.827637,350.761597 622.408081,350.836243 
	C624.816406,337.908203 627.224792,324.980133 629.733887,311.632782 
z"/>
<path fill="#ED5608" opacity="1.000000" stroke="none" 
	d="
M1061.857178,372.129486 
	C1051.066895,340.123627 1050.221924,308.241333 1061.790771,276.856934 
	C1072.969360,246.531036 1099.639404,231.770081 1131.666016,236.472198 
	C1160.824707,240.753235 1179.296265,257.842926 1186.786743,287.468964 
	C1190.515991,302.219330 1192.277222,325.179260 1190.418091,336.484863 
	C1158.609131,336.484863 1126.704834,336.484863 1094.945557,336.484863 
	C1092.113159,347.156860 1098.743896,364.656067 1107.754517,371.194794 
	C1116.570679,377.592438 1130.915649,377.601898 1140.721680,370.868439 
	C1143.105591,369.231506 1144.970215,366.707489 1146.745605,364.344788 
	C1149.703247,360.408508 1153.339478,357.814697 1158.330078,357.404938 
	C1160.319336,357.241608 1162.317871,357.116974 1164.312744,357.108704 
	C1172.285156,357.075531 1180.257690,357.095001 1188.907959,357.095001 
	C1186.294800,369.115204 1181.889038,379.635406 1174.762329,389.028656 
	C1151.954712,419.089600 1106.695068,418.544617 1085.030518,402.654755 
	C1074.387817,394.848969 1067.038696,384.555267 1061.857178,372.129486 
M1105.555786,278.979889 
	C1097.011230,286.381622 1094.286011,296.035889 1094.162842,306.951752 
	C1113.126465,306.951752 1131.509766,306.951752 1150.367065,306.951752 
	C1149.226807,294.835846 1147.663452,283.284454 1136.232300,276.843170 
	C1126.120361,271.145325 1115.819946,271.738586 1105.555786,278.979889 
z"/>
<path fill="#ED5608" opacity="1.000000" stroke="none" 
	d="
M800.988281,282.323273 
	C799.229492,282.977783 797.650391,283.537292 796.067383,283.548706 
	C785.261047,283.626709 774.453918,283.589539 763.001221,283.589539 
	C763.305725,275.758118 765.535339,268.910400 769.155212,262.590881 
	C776.071472,250.516449 786.069336,242.031189 799.760620,238.700180 
	C819.320679,233.941330 838.784912,234.564728 857.650330,241.824188 
	C874.727722,248.395584 884.741882,263.400330 884.848694,281.733337 
	C884.976746,303.720032 885.083374,325.710602 884.803406,347.694427 
	C884.656494,359.229828 882.806213,370.549896 877.431580,381.027893 
	C868.655151,398.137604 854.562622,408.195160 835.787537,410.995300 
	C825.313416,412.557404 814.564880,413.155762 803.974365,412.878265 
	C782.178711,412.307159 764.442505,397.751923 760.762878,376.387482 
	C758.933716,365.766846 759.136658,354.445282 760.495422,343.703308 
	C762.935913,324.409760 776.962219,314.718719 793.932434,309.213715 
	C803.351685,306.158203 813.434753,305.205566 823.121521,302.897522 
	C829.051208,301.484650 835.006348,299.773926 840.563538,297.321228 
	C845.657227,295.073120 848.192627,290.496094 847.556885,284.687500 
	C846.920044,278.869507 843.595337,274.930420 837.937988,274.029846 
	C830.804749,272.894409 823.516541,271.963837 816.329163,272.164429 
	C809.772278,272.347412 804.200684,275.582428 800.988281,282.323273 
M836.239624,329.841187 
	C827.916321,332.176880 819.475525,334.164581 811.296265,336.926727 
	C797.718079,341.512146 792.006226,354.303101 797.154968,367.718811 
	C798.982361,372.480408 802.238525,375.708557 807.267822,377.297974 
	C822.182495,382.011475 838.737549,374.029663 844.965027,359.004211 
	C849.462463,348.153076 847.900330,336.839081 848.077942,325.135193 
	C844.011963,326.745300 840.488281,328.140625 836.239624,329.841187 
z"/>
<path fill="#3B073C" opacity="1.000000" stroke="none" 
	d="
M513.191284,237.796570 
	C533.911926,244.120102 546.174072,258.582458 552.939575,277.863068 
	C564.195496,309.940369 564.031677,342.148346 551.271118,373.802094 
	C536.399414,410.692719 497.426300,419.019379 466.728241,407.583099 
	C448.170349,400.669464 435.929596,387.375488 430.271332,368.646667 
	C421.359314,339.148163 420.355011,309.281586 430.049835,279.779968 
	C441.603210,244.622696 468.878265,231.386551 503.063934,235.659973 
	C506.343475,236.069946 509.558655,236.994690 513.191284,237.796570 
M461.895691,316.573639 
	C461.936768,321.070374 461.732269,325.585510 462.067657,330.060181 
	C462.888702,341.015503 463.986694,351.969360 469.155945,361.947510 
	C477.627716,378.300507 498.580566,381.018311 510.316986,366.917694 
	C514.035522,362.450165 516.979492,356.862030 518.696167,351.298645 
	C522.865845,337.785248 522.925720,323.731476 521.690735,309.755005 
	C520.880127,300.580200 518.415405,291.851837 512.891113,284.149261 
	C501.244476,267.910309 478.484406,269.216400 468.827881,286.816742 
	C463.914551,295.771942 462.114197,305.501770 461.895691,316.573639 
z"/>
<path fill="#3B073C" opacity="1.000000" stroke="none" 
	d="
M179.921967,294.375183 
	C179.787933,302.494629 179.621338,310.154327 179.612228,317.814209 
	C179.578354,346.313995 179.596268,374.813904 179.594757,403.313751 
	C179.594666,405.114716 179.594742,406.915680 179.594742,408.957275 
	C166.224808,408.957275 153.320435,408.957275 139.985092,408.957275 
	C139.985092,407.833069 139.984222,406.875153 139.985229,405.917267 
	C140.021332,371.418732 139.844864,336.917694 140.249069,302.423492 
	C140.345551,294.191071 141.818787,285.855591 143.628006,277.784790 
	C149.084793,253.442261 167.343536,242.818008 189.344421,237.138489 
	C211.241577,231.485764 231.211624,237.004272 249.316833,249.819519 
	C260.988678,258.081085 265.560913,270.596802 267.830719,283.967682 
	C269.161987,291.809998 269.864197,299.846802 269.920044,307.802643 
	C270.147095,340.134216 270.014679,372.468323 270.014801,404.801483 
	C270.014801,406.101501 270.014832,407.401520 270.014832,408.988556 
	C262.057007,408.988556 254.418793,409.454803 246.862259,408.868408 
	C237.790955,408.164398 231.144043,399.065277 231.127701,388.232330 
	C231.085175,360.065918 231.140503,331.899323 231.076782,303.733002 
	C231.068161,299.921143 230.836517,296.076965 230.303665,292.304901 
	C228.154236,277.088684 214.095062,270.719910 204.115479,271.089478 
	C191.125183,271.570526 181.913818,280.374084 179.921967,294.375183 
z"/>
<path fill="#3C083D" opacity="1.000000" stroke="none" 
	d="
M404.899109,264.160980 
	C411.015594,276.548065 413.070618,289.498657 413.141785,302.719666 
	C413.329315,337.542114 413.197571,372.366241 413.182495,407.189728 
	C413.182281,407.664948 413.045502,408.140106 412.934570,408.861694 
	C404.979584,408.861694 397.004730,409.413269 389.145966,408.694885 
	C382.322845,408.071136 376.451599,401.077179 375.101929,393.550476 
	C374.635132,390.947205 374.440155,388.262268 374.435699,385.614105 
	C374.387726,357.122437 374.401825,328.630676 374.401001,300.138916 
	C374.400726,289.979370 371.823578,281.125702 362.599945,275.256348 
	C347.012360,265.337372 323.384094,273.690460 323.082916,296.953766 
	C322.731384,324.107788 322.926056,351.268890 322.891846,378.426941 
	C322.879272,388.409302 322.889832,398.391632 322.889832,408.789917 
	C309.826019,408.789917 296.944000,408.789917 283.409912,408.789917 
	C283.409912,407.287354 283.409943,405.685883 283.409943,404.084412 
	C283.410339,371.426971 283.208984,338.767487 283.545380,306.113495 
	C283.635498,297.364349 284.851837,288.537201 286.444122,279.910675 
	C290.488342,258.000397 305.502472,246.084183 325.344727,239.206421 
	C349.875183,230.703629 372.591827,235.237564 393.186279,250.308395 
	C397.844116,253.716949 400.941711,259.257599 404.899109,264.160980 
z"/>
<path fill="#ED5608" opacity="1.000000" stroke="none" 
	d="
M1035.311768,261.343750 
	C1020.289917,310.036804 1005.379211,358.344238 990.558472,406.679291 
	C989.790588,409.183533 988.660400,410.099030 986.032959,410.068634 
	C975.204285,409.943512 964.369812,409.869415 953.545288,410.117767 
	C950.180237,410.194977 948.989197,408.871216 948.096619,405.923004 
	C937.784424,371.863922 927.362000,337.838196 916.971375,303.802856 
	C910.902405,283.923340 904.833740,264.043732 898.782532,244.158783 
	C898.407410,242.926010 898.185974,241.646439 897.762329,239.827316 
	C911.166870,239.827316 924.130188,239.724991 937.084656,240.015488 
	C938.157593,240.039536 939.719543,242.583389 940.129150,244.192078 
	C945.832336,266.590546 951.386475,289.027100 956.950867,311.460785 
	C960.672180,326.463837 964.352112,341.477112 968.403748,357.919617 
	C969.506592,354.214844 970.304504,351.858948 970.908997,349.454468 
	C978.654541,318.647705 986.316040,287.819672 994.123718,257.028748 
	C997.491455,243.747223 1002.780884,239.784210 1016.373962,239.776337 
	C1024.520630,239.771606 1032.667358,239.775467 1041.859131,239.775467 
	C1039.605591,247.215347 1037.523438,254.089584 1035.311768,261.343750 
z"/>
<path fill="#3B083C" opacity="1.000000" stroke="none" 
	d="
M47.115189,162.879501 
	C58.261135,171.507462 68.956932,180.817154 80.686058,188.561905 
	C91.332352,195.591660 103.497154,199.537933 116.670464,197.518555 
	C131.776367,195.202927 141.947311,185.722488 150.117355,173.623199 
	C161.829361,156.278473 168.041901,136.679169 172.937012,116.623611 
	C180.732056,84.686859 184.038681,52.128880 185.801071,19.379282 
	C185.869949,18.099380 186.027664,16.824263 186.501938,15.589905 
	C189.388489,85.423508 179.287689,153.543060 158.918243,220.221848 
	C138.686646,286.449463 109.832253,348.625916 70.989532,406.021149 
	C78.788719,389.024139 83.070145,371.072998 85.695557,352.743988 
	C89.843231,323.787415 90.251350,294.685303 87.243141,265.598114 
	C83.553902,229.925995 70.065651,197.934601 49.873749,168.571442 
	C48.837166,167.064041 47.778305,165.571960 46.739555,163.637939 
	C46.749290,163.203125 47.115189,162.879501 47.115189,162.879501 
z"/>
<path fill="#ED5608" opacity="1.000000" stroke="none" 
	d="
M128.660034,144.622330 
	C114.325058,159.360703 96.198936,157.693100 85.835083,140.327652 
	C74.665352,121.611893 74.730721,102.155884 85.657410,83.442986 
	C97.075890,63.887848 119.496063,64.153549 131.793961,83.260315 
	C142.353516,99.666321 142.670853,127.322784 128.660034,144.622330 
z"/>
<path fill="#515252" opacity="1.000000" stroke="none" 
	d="
M637.434570,458.759155 
	C635.196594,468.357056 633.092590,477.579651 631.013000,486.695068 
	C623.857849,487.809082 623.872437,487.805237 622.116638,481.180328 
	C618.882263,468.975647 615.626221,456.776733 612.401001,444.569611 
	C612.328674,444.295898 612.517700,443.953064 612.592834,443.605225 
	C616.967651,442.230286 619.452087,442.963867 620.429382,448.300140 
	C622.063110,457.220581 624.628601,465.970337 627.695740,474.773651 
	C630.166504,464.434052 632.637268,454.094421 635.089417,443.832764 
	C641.845215,442.353271 641.830078,442.356750 643.227783,448.435730 
	C645.231323,457.149994 647.259583,465.858521 649.607361,475.994720 
	C652.693359,464.307251 655.433838,453.928589 658.221558,443.370667 
	C660.329163,443.370667 662.264954,443.370667 664.815186,443.370667 
	C660.796631,458.106903 656.849976,472.579193 652.895935,487.078796 
	C650.395752,487.078796 648.271484,487.078796 645.796387,487.078796 
	C643.413269,476.839813 641.048035,466.677948 638.583923,456.091125 
	C638.150757,457.069122 637.859619,457.726532 637.434570,458.759155 
z"/>
<path fill="#505151" opacity="1.000000" stroke="none" 
	d="
M290.550964,456.473206 
	C289.584320,455.514679 288.372894,454.516846 288.522247,453.804138 
	C289.675964,448.298096 292.981781,444.383820 298.532928,443.260315 
	C302.199829,442.518188 306.141357,442.353699 309.856323,442.797760 
	C316.655426,443.610504 319.749634,447.207764 320.063965,454.121521 
	C320.313080,459.601654 320.041199,465.104248 320.239319,470.588257 
	C320.435394,476.014130 320.930634,481.429230 321.296417,486.875793 
	C315.553986,487.558472 315.553986,487.558472 314.122070,484.081085 
	C309.059418,485.480682 304.183685,487.641266 299.174927,488.013855 
	C292.458099,488.513519 287.806702,484.043121 287.032593,477.980316 
	C286.120148,470.833893 289.356232,465.019135 295.863922,463.111603 
	C299.823212,461.951080 304.070465,461.798859 308.076508,460.761688 
	C310.170074,460.219635 313.530640,460.780060 313.401947,456.906708 
	C313.288818,453.501099 312.205841,450.735657 308.713867,449.430481 
	C303.037415,447.308777 297.632416,449.101929 295.493530,454.558807 
	C294.392944,457.366730 292.921661,456.976013 290.550964,456.473206 
M296.755493,470.111969 
	C294.026611,472.457397 292.701172,475.753052 295.048828,478.393005 
	C296.824677,480.389893 300.321960,481.908478 303.008575,481.841797 
	C310.505646,481.655762 314.403778,475.011108 312.774292,465.960999 
	C307.657959,467.219910 302.552429,468.476166 296.755493,470.111969 
z"/>
<path fill="#4F5050" opacity="1.000000" stroke="none" 
	d="
M544.192383,475.722046 
	C544.595459,479.638245 544.998840,483.086365 545.437073,486.831909 
	C542.298767,487.224121 538.456299,488.827637 537.922607,484.038757 
	C533.081421,485.430695 528.337830,487.587860 523.444519,488.010193 
	C516.598145,488.601074 511.961975,484.407684 510.989288,478.303009 
	C509.827972,471.014587 513.175354,464.966370 519.916077,463.044678 
	C523.894226,461.910461 528.151672,461.761078 532.137695,460.646912 
	C534.004944,460.125000 536.603699,458.637024 536.983154,457.115936 
	C537.791138,453.877045 536.329285,450.988495 532.836670,449.548096 
	C526.329590,446.864471 521.286072,449.269043 518.320312,456.830536 
	C517.302124,456.766846 516.171814,456.765991 515.064636,456.605652 
	C514.109802,456.467377 513.181213,456.147491 512.061401,455.862122 
	C512.808105,449.393158 515.958374,445.010864 522.019287,443.353760 
	C528.612366,441.551117 535.502075,440.947113 540.806946,446.207184 
	C542.772644,448.156250 543.664917,451.815430 543.877319,454.778534 
	C544.364563,461.576263 544.132629,468.425598 544.192383,475.722046 
M526.005859,468.283661 
	C525.365906,468.457672 524.734192,468.674225 524.084778,468.798950 
	C519.842407,469.613647 517.533936,472.145844 518.117432,476.470306 
	C518.725098,480.973480 522.091248,482.230469 526.142273,482.105225 
	C534.080444,481.859833 538.480957,475.042358 536.482605,466.127869 
	C533.258179,466.792450 530.033203,467.457153 526.005859,468.283661 
z"/>
<path fill="#535454" opacity="1.000000" stroke="none" 
	d="
M781.566467,450.551941 
	C773.353821,459.632355 773.336426,459.642426 779.325012,470.003693 
	C782.482788,475.467285 785.713501,480.888733 788.926880,486.355835 
	C782.398193,488.382507 781.342346,488.001404 778.244385,482.522095 
	C775.070923,476.909393 771.912842,471.288025 768.635498,465.470642 
	C760.436340,471.342957 765.778870,479.717957 763.528076,486.872925 
	C761.848389,486.872925 759.831482,486.872925 757.595093,486.872925 
	C757.595093,466.936371 757.595093,447.186829 757.595093,427.094849 
	C759.571350,427.094849 761.484802,427.094849 763.967834,427.094849 
	C763.967834,437.849701 763.967834,448.675964 763.967834,460.853027 
	C768.196899,455.950287 771.736755,452.269135 774.771545,448.210358 
	C777.846924,444.097168 781.324036,441.739166 787.275452,443.703186 
	C785.421387,445.936371 783.614502,448.112762 781.566467,450.551941 
z"/>
<path fill="#505251" opacity="1.000000" stroke="none" 
	d="
M389.556274,450.698181 
	C394.061188,443.830444 400.135742,441.270477 407.777496,442.670868 
	C415.617737,444.107666 420.157410,449.410156 421.365204,456.794525 
	C422.286255,462.425598 422.256165,468.461212 421.309113,474.091461 
	C419.826202,482.907196 412.913971,488.178406 404.518311,488.233368 
	C395.939941,488.289551 389.387787,483.266022 387.396881,474.404419 
	C385.619110,466.491302 385.612762,458.545868 389.556274,450.698181 
M406.769409,481.543793 
	C416.607086,476.867493 418.859589,457.087769 409.988373,450.898071 
	C407.834229,449.395050 404.244965,448.839661 401.611969,449.356964 
	C395.641998,450.529938 392.190765,459.172729 393.427094,468.276031 
	C394.729004,477.862335 398.064392,481.590698 405.524414,481.792664 
	C405.687958,481.797058 405.852997,481.746521 406.769409,481.543793 
z"/>
<path fill="#505251" opacity="1.000000" stroke="none" 
	d="
M229.641220,473.589722 
	C226.398499,484.107269 220.070282,488.858795 210.661285,488.145599 
	C201.946716,487.485046 196.112427,481.491089 194.872604,471.127869 
	C194.347855,466.741486 194.413254,462.145325 195.093750,457.782288 
	C196.608688,448.069397 203.996201,441.864929 212.855698,442.198792 
	C221.730530,442.533203 228.850815,449.175995 229.862793,458.775421 
	C230.363968,463.529358 229.816040,468.393951 229.641220,473.589722 
M219.450333,452.042358 
	C212.667816,446.511627 205.375946,448.406555 202.598526,456.590729 
	C200.562317,462.590759 200.634537,468.680145 202.856491,474.665405 
	C204.450027,478.957947 207.518494,481.625610 212.123856,481.821564 
	C216.851730,482.022736 220.246765,479.260590 221.648224,475.094238 
	C224.203415,467.498077 224.699677,459.790863 219.450333,452.042358 
z"/>
<path fill="#505251" opacity="1.000000" stroke="none" 
	d="
M708.911072,453.288025 
	C709.336487,460.541260 710.551331,467.541626 709.710815,474.285919 
	C708.659180,482.723999 701.450317,488.037659 693.291260,488.202087 
	C684.815613,488.372894 677.998718,483.753693 676.223755,475.138367 
	C675.044250,469.413269 674.876343,463.188629 675.726624,457.403778 
	C677.046997,448.419525 682.593689,443.566559 690.766174,442.402344 
	C698.390930,441.316162 704.463318,444.860504 708.911072,453.288025 
M684.211243,453.981415 
	C680.944092,460.623108 681.044617,467.534393 683.202393,474.346710 
	C684.593384,478.738190 687.836792,481.773621 692.743347,481.819672 
	C697.403564,481.863373 700.477844,479.166595 702.156677,474.931244 
	C704.508728,468.997284 704.684814,462.899048 702.707336,456.882538 
	C699.720825,447.796631 691.120117,446.182953 684.211243,453.981415 
z"/>
<path fill="#535554" opacity="1.000000" stroke="none" 
	d="
M108.692688,454.119843 
	C108.002373,462.398590 107.469849,470.326721 107.049728,478.260803 
	C106.900887,481.071686 107.025917,483.897095 107.025917,486.979248 
	C104.692909,486.979248 102.608360,486.979248 100.321823,486.979248 
	C100.321823,472.479919 100.321823,458.220428 100.321823,443.644897 
	C103.447441,442.960632 106.594261,441.698822 106.943390,446.501556 
	C110.010117,445.142822 112.975922,443.220001 116.206810,442.519165 
	C123.848450,440.861481 130.577225,445.384125 131.048676,453.289246 
	C131.709106,464.363037 131.215363,475.505707 131.215363,486.934509 
	C129.326706,486.934509 127.398308,486.934509 124.749268,486.934509 
	C124.749268,480.337738 124.749313,473.594788 124.749245,466.851837 
	C124.749222,464.354675 124.756165,461.857483 124.747116,459.360352 
	C124.732002,455.185791 124.165359,451.158356 119.561646,449.567993 
	C114.965050,447.980133 111.507584,449.971497 108.692688,454.119843 
z"/>
<path fill="#535554" opacity="1.000000" stroke="none" 
	d="
M172.972809,479.880157 
	C172.972733,472.572906 173.022934,465.745728 172.957291,458.919678 
	C172.899628,452.922791 170.401215,449.492676 165.953171,449.054688 
	C160.941513,448.561157 156.351990,452.132111 155.935349,457.965393 
	C155.308304,466.744781 155.439621,475.578400 155.252884,484.389069 
	C155.235992,485.186249 155.250656,485.984131 155.250656,487.012512 
	C152.942047,487.012512 151.012878,487.012512 148.731110,487.012512 
	C148.731110,472.552704 148.731110,458.174866 148.731110,443.463104 
	C151.704849,443.207367 155.195312,441.398987 155.078979,446.539917 
	C158.392700,445.123627 161.541794,443.125366 164.952515,442.451813 
	C172.765167,440.908936 179.288651,446.195923 179.675949,454.785461 
	C180.154404,465.396240 179.790375,476.044983 179.790375,486.961334 
	C177.467072,486.961334 175.382355,486.961334 172.972733,486.961334 
	C172.972733,484.637421 172.972733,482.499084 172.972809,479.880157 
z"/>
<path fill="#515352" opacity="1.000000" stroke="none" 
	d="
M436.978271,462.000610 
	C436.978271,455.541351 436.978271,449.581970 436.978271,443.379211 
	C439.009338,443.379211 440.608398,443.379211 442.630829,443.379211 
	C442.820099,444.632812 443.030975,446.029572 443.264496,447.576355 
	C443.628876,447.446930 444.164062,447.420898 444.423889,447.140137 
	C449.030426,442.161652 454.572662,440.960144 460.765289,443.418701 
	C466.794647,445.812439 468.198730,451.047852 468.223694,456.868134 
	C468.266388,466.825378 468.235443,476.782928 468.235443,486.989136 
	C465.957733,486.989136 464.034241,486.989136 461.397888,486.989136 
	C461.397888,479.376831 461.406067,471.796448 461.393005,464.216064 
	C461.389008,461.887299 461.383881,459.556030 461.279266,457.230408 
	C461.085266,452.917664 459.158295,449.892426 454.675446,449.115051 
	C450.687622,448.423492 446.215637,451.064240 445.008118,455.297852 
	C444.158569,458.276337 443.981812,461.509155 443.918457,464.636810 
	C443.770233,471.950684 443.871094,479.269623 443.871094,486.913086 
	C441.563629,486.913086 439.490051,486.913086 436.978271,486.913086 
	C436.978271,478.726990 436.978271,470.613739 436.978271,462.000610 
z"/>
<path fill="#505251" opacity="1.000000" stroke="none" 
	d="
M270.130371,462.285339 
	C267.306213,470.828094 264.581909,478.987427 261.893982,487.037720 
	C259.585571,487.037720 257.615570,487.037720 255.428665,487.037720 
	C250.620331,472.494537 245.851593,458.071136 241.081848,443.644745 
	C246.188156,442.051575 248.650528,443.593140 249.963898,448.536621 
	C252.386978,457.657013 255.445068,466.608734 258.603760,476.810120 
	C260.392029,471.264679 261.866852,466.702759 263.333984,462.138336 
	C264.804810,457.562347 266.612366,453.059448 267.638580,448.385406 
	C268.689117,443.600464 271.047180,442.002777 276.222168,443.722076 
	C274.227966,449.772491 272.229065,455.837189 270.130371,462.285339 
z"/>
<path fill="#535554" opacity="1.000000" stroke="none" 
	d="
M348.283722,449.266418 
	C346.961578,450.541534 345.416168,451.783936 345.370178,453.079559 
	C345.122711,460.054688 345.425903,467.049225 345.180481,474.024506 
	C345.021179,478.552338 346.232483,481.265045 351.707550,480.362549 
	C352.019928,482.726685 352.290497,484.774445 352.550720,486.744049 
	C343.352539,489.725983 338.695282,486.638672 338.450165,477.376801 
	C338.208801,468.255859 338.397522,459.123474 338.397522,449.875153 
	C336.672913,449.457916 335.294617,449.124451 333.941101,448.796967 
	C333.941101,446.935181 333.941101,445.306549 333.941101,443.436066 
	C335.336975,443.226074 336.587952,443.037903 338.204285,442.794769 
	C339.031006,437.555115 336.118195,430.388519 345.011932,428.769989 
	C345.011932,433.244720 345.011932,437.811920 345.011932,442.695862 
	C347.315582,442.953186 349.231934,443.167236 351.576447,443.429108 
	C351.282013,445.777527 354.183350,449.230560 348.283722,449.266418 
z"/>
<path fill="#545655" opacity="1.000000" stroke="none" 
	d="
M572.755737,480.491516 
	C578.219482,480.696350 575.069763,484.736481 576.550110,486.648834 
	C567.535400,489.909546 562.532288,486.590973 562.390930,477.454956 
	C562.249451,468.316467 562.359863,459.174072 562.359863,449.888123 
	C560.682861,449.477844 559.303406,449.140350 557.929626,448.804260 
	C557.929626,446.961151 557.929626,445.329224 557.929626,443.445282 
	C559.316345,443.230927 560.567871,443.037476 562.188843,442.786896 
	C563.069031,437.634857 560.109863,430.485046 568.914917,428.755768 
	C568.914917,433.354828 568.914917,437.923950 568.914917,442.872894 
	C571.164978,443.032928 573.061462,443.167847 575.272095,443.325073 
	C575.272095,445.256165 575.272095,446.998199 575.272095,448.949982 
	C573.271484,449.158417 571.335693,449.360107 569.093811,449.593658 
	C569.093811,458.546570 568.944153,467.344147 569.239380,476.126770 
	C569.289307,477.611145 571.255859,479.031128 572.755737,480.491516 
z"/>
<path fill="#565857" opacity="1.000000" stroke="none" 
	d="
M732.264038,461.729004 
	C732.246399,470.331573 732.246399,478.487854 732.246399,486.952881 
	C729.922607,486.952881 728.005676,486.952881 725.723572,486.952881 
	C725.723572,472.556824 725.723572,458.172821 725.723572,443.497253 
	C728.680298,443.039093 731.826050,441.743530 731.912842,446.847717 
	C737.742310,441.812042 741.229919,440.672150 744.452759,443.854401 
	C745.801453,445.186096 745.114868,448.579041 745.373413,451.238403 
	C735.102783,449.861145 734.047852,450.761108 732.264038,461.729004 
z"/>
<path fill="#575857" opacity="1.000000" stroke="none" 
	d="
M76.734100,452.090332 
	C76.734512,448.961639 76.734512,446.318054 76.734512,443.392059 
	C79.000229,443.392059 80.920601,443.392059 83.241318,443.392059 
	C83.241318,457.775299 83.241318,472.152496 83.241318,486.899017 
	C81.310364,486.899017 79.256020,486.899017 76.733681,486.899017 
	C76.733681,475.449341 76.733681,464.012421 76.734100,452.090332 
z"/>
<path fill="#575858" opacity="1.000000" stroke="none" 
	d="
M371.890869,465.999817 
	C371.890839,473.157776 371.890839,479.815826 371.890839,486.869202 
	C369.658447,486.869202 367.617218,486.869202 365.382935,486.869202 
	C365.382935,472.379486 365.382935,457.984131 365.382935,443.378418 
	C367.563751,443.378418 369.465668,443.378418 371.890900,443.378418 
	C371.890900,450.924866 371.890900,458.212372 371.890869,465.999817 
z"/>
<path fill="#5E5E5E" opacity="1.000000" stroke="none" 
	d="
M77.744110,426.810730 
	C79.741859,426.732056 81.361313,426.732056 83.324158,426.732056 
	C83.324158,429.740570 83.324158,432.413483 83.324158,435.380493 
	C81.210808,435.380493 79.302170,435.380493 76.583435,435.380493 
	C76.848473,432.504059 77.107147,429.696716 77.744110,426.810730 
z"/>
<path fill="#5D5D5D" opacity="1.000000" stroke="none" 
	d="
M365.114075,428.518066 
	C367.097626,427.474701 369.066498,426.848175 371.585388,426.046631 
	C371.585388,429.725342 371.585388,432.405273 371.585388,435.377747 
	C369.512787,435.377747 367.614838,435.377747 365.099396,435.377747 
	C365.099396,433.106476 365.099396,431.020691 365.114075,428.518066 
z"/>
<path fill="#614E60" opacity="1.000000" stroke="none" 
	d="
M27.405422,140.598297 
	C29.576395,142.804108 31.747366,145.009918 33.840019,147.765610 
	C33.645592,148.497559 33.529480,148.679642 33.413376,148.861740 
	C31.293001,146.498276 29.172625,144.134811 27.096615,141.316101 
	C27.140978,140.860825 27.405422,140.598297 27.405422,140.598297 
z"/>
<path fill="#614E60" opacity="1.000000" stroke="none" 
	d="
M35.622555,149.339645 
	C36.540726,150.407318 37.458900,151.475006 38.377071,152.542679 
	C38.163864,152.791489 37.950661,153.040314 37.737453,153.289124 
	C36.822742,152.439835 35.908031,151.590530 35.112263,150.255707 
	C35.361656,149.626678 35.492104,149.483170 35.622555,149.339645 
z"/>
<path fill="#614E60" opacity="1.000000" stroke="none" 
	d="
M35.022675,149.972992 
	C34.444408,149.869644 34.074677,149.563446 33.559158,149.059509 
	C33.529480,148.679642 33.645592,148.497559 33.973152,148.070099 
	C34.566399,148.179596 34.948189,148.534485 35.476265,149.114502 
	C35.492104,149.483170 35.361656,149.626678 35.022675,149.972992 
z"/>
<path fill="#614E60" opacity="1.000000" stroke="none" 
	d="
M27.007267,140.990570 
	C26.655926,140.840317 26.438293,140.560318 26.220665,140.280304 
	C26.488064,140.245560 26.755461,140.210800 27.214140,140.387177 
	C27.405422,140.598297 27.140978,140.860825 27.007267,140.990570 
z"/>
<path fill="#3B083C" opacity="1.000000" stroke="none" 
	d="
M46.553337,163.348907 
	C46.175255,163.123962 45.993130,162.753235 45.811005,162.382507 
	C46.178658,162.348053 46.546310,162.313599 47.014580,162.579315 
	C47.115189,162.879501 46.749290,163.203125 46.553337,163.348907 
z"/>
<path fill="#FEFCF9" opacity="1.000000" stroke="none" 
	d="
M1105.851318,278.768951 
	C1115.819946,271.738586 1126.120361,271.145325 1136.232300,276.843170 
	C1147.663452,283.284454 1149.226807,294.835846 1150.367065,306.951752 
	C1131.509766,306.951752 1113.126465,306.951752 1094.162842,306.951752 
	C1094.286011,296.035889 1097.011230,286.381622 1105.851318,278.768951 
z"/>
<path fill="#FEFCF9" opacity="1.000000" stroke="none" 
	d="
M836.602112,329.688599 
	C840.488281,328.140625 844.011963,326.745300 848.077942,325.135193 
	C847.900330,336.839081 849.462463,348.153076 844.965027,359.004211 
	C838.737549,374.029663 822.182495,382.011475 807.267822,377.297974 
	C802.238525,375.708557 798.982361,372.480408 797.154968,367.718811 
	C792.006226,354.303101 797.718079,341.512146 811.296265,336.926727 
	C819.475525,334.164581 827.916321,332.176880 836.602112,329.688599 
z"/>
<path fill="#FEFDFE" opacity="1.000000" stroke="none" 
	d="
M461.896667,316.087158 
	C462.114197,305.501770 463.914551,295.771942 468.827881,286.816742 
	C478.484406,269.216400 501.244476,267.910309 512.891113,284.149261 
	C518.415405,291.851837 520.880127,300.580200 521.690735,309.755005 
	C522.925720,323.731476 522.865845,337.785248 518.696167,351.298645 
	C516.979492,356.862030 514.035522,362.450165 510.316986,366.917694 
	C498.580566,381.018311 477.627716,378.300507 469.155945,361.947510 
	C463.986694,351.969360 462.888702,341.015503 462.067657,330.060181 
	C461.732269,325.585510 461.936768,321.070374 461.896667,316.087158 
z"/>
<path fill="#FAFAFA" opacity="1.000000" stroke="none" 
	d="
M297.101196,469.922180 
	C302.552429,468.476166 307.657959,467.219910 312.774292,465.960999 
	C314.403778,475.011108 310.505646,481.655762 303.008575,481.841797 
	C300.321960,481.908478 296.824677,480.389893 295.048828,478.393005 
	C292.701172,475.753052 294.026611,472.457397 297.101196,469.922180 
z"/>
<path fill="#FAFAFA" opacity="1.000000" stroke="none" 
	d="
M526.407043,468.202759 
	C530.033203,467.457153 533.258179,466.792450 536.482605,466.127869 
	C538.480957,475.042358 534.080444,481.859833 526.142273,482.105225 
	C522.091248,482.230469 518.725098,480.973480 518.117432,476.470306 
	C517.533936,472.145844 519.842407,469.613647 524.084778,468.798950 
	C524.734192,468.674225 525.365906,468.457672 526.407043,468.202759 
z"/>
<path fill="#FBFBFB" opacity="1.000000" stroke="none" 
	d="
M406.393372,481.632690 
	C405.852997,481.746521 405.687958,481.797058 405.524414,481.792664 
	C398.064392,481.590698 394.729004,477.862335 393.427094,468.276031 
	C392.190765,459.172729 395.641998,450.529938 401.611969,449.356964 
	C404.244965,448.839661 407.834229,449.395050 409.988373,450.898071 
	C418.859589,457.087769 416.607086,476.867493 406.393372,481.632690 
z"/>
<path fill="#FBFBFB" opacity="1.000000" stroke="none" 
	d="
M219.705566,452.329346 
	C224.699677,459.790863 224.203415,467.498077 221.648224,475.094238 
	C220.246765,479.260590 216.851730,482.022736 212.123856,481.821564 
	C207.518494,481.625610 204.450027,478.957947 202.856491,474.665405 
	C200.634537,468.680145 200.562317,462.590759 202.598526,456.590729 
	C205.375946,448.406555 212.667816,446.511627 219.705566,452.329346 
z"/>
<path fill="#FCFCFC" opacity="1.000000" stroke="none" 
	d="
M684.440002,453.668182 
	C691.120117,446.182953 699.720825,447.796631 702.707336,456.882538 
	C704.684814,462.899048 704.508728,468.997284 702.156677,474.931244 
	C700.477844,479.166595 697.403564,481.863373 692.743347,481.819672 
	C687.836792,481.773621 684.593384,478.738190 683.202393,474.346710 
	C681.044617,467.534393 680.944092,460.623108 684.440002,453.668182 
z"/>
</svg>